<?xml version="1.0" standalone="no"?>
<!DOCTYPE svg PUBLIC "-//W3C//DTD SVG 20010904//EN"
 "http://www.w3.org/TR/2001/REC-SVG-20010904/DTD/svg10.dtd">
<svg version="1.0" xmlns="http://www.w3.org/2000/svg"
 width="700.000000pt" height="700.000000pt" viewBox="0 0 700.000000 700.000000"
 preserveAspectRatio="xMidYMid meet">
<metadata>
Created by potrace 1.14, written by Peter Selinger 2001-2017
</metadata>
<g transform="translate(0.000000,700.000000) scale(0.100000,-0.100000)"
fill="#000000" stroke="none">
<path d="M1650 6018 c-228 -20 -411 -167 -492 -391 l-22 -62 -2 -1720 -2
-1719 -485 -483 c-267 -265 -499 -502 -516 -527 -93 -135 -132 -266 -126 -431
3 -107 6 -121 31 -199 70 -214 241 -382 459 -452 144 -47 333 -40 475 17 125
50 179 97 653 568 254 253 567 563 695 690 l233 231 1342 1 c738 0 1360 2
1382 5 242 28 451 243 483 497 4 29 6 824 6 1767 -1 1901 3 1782 -66 1914 -45
85 -156 194 -238 234 -141 68 -6 64 -1964 66 -974 0 -1805 -2 -1846 -6z m1980
-382 c30 -4 80 -11 110 -16 30 -5 70 -12 87 -15 114 -19 361 -111 497 -185
189 -102 401 -274 542 -440 235 -277 391 -651 429 -1029 6 -63 7 -278 1 -336
-18 -177 -44 -298 -96 -449 -214 -621 -741 -1084 -1382 -1216 -136 -28 -176
-32 -353 -35 -312 -6 -575 53 -863 193 l-114 55 -805 -804 c-443 -442 -813
-812 -822 -822 -51 -57 -179 -81 -246 -45 -39 21 -83 64 -103 103 -21 41 -21
141 1 182 9 18 249 265 533 550 283 285 647 650 807 810 l291 293 -70 72
c-166 173 -303 395 -395 638 -18 47 -35 101 -40 120 -4 19 -13 55 -19 80 -6
25 -13 54 -16 65 -14 69 -13 64 -29 195 -7 49 -7 320 -1 360 2 14 7 48 10 75
56 468 341 950 730 1235 45 33 86 63 91 68 18 13 87 53 180 102 135 72 343
145 485 170 25 5 59 11 75 14 17 4 66 9 110 12 44 3 81 7 82 8 5 5 239 -2 293
-8z"/>
<path d="M3298 5305 c-2 -2 -25 -6 -53 -9 -251 -33 -493 -129 -697 -274 -95
-68 -252 -216 -304 -287 -16 -22 -32 -42 -35 -45 -19 -15 -108 -165 -149 -253
-111 -236 -149 -415 -145 -682 2 -112 9 -190 23 -260 132 -649 641 -1127 1302
-1223 101 -15 361 -7 470 13 56 11 72 15 146 35 75 21 89 26 164 57 244 102
476 284 640 503 115 154 224 392 260 570 5 25 12 56 15 70 13 61 17 103 19
230 5 225 -25 403 -101 595 -179 453 -561 789 -1040 915 -42 11 -97 22 -122
26 -25 3 -55 8 -66 11 -20 6 -321 13 -327 8z m298 -869 c16 -3 52 -8 79 -12
62 -8 214 -55 303 -95 167 -75 375 -247 483 -399 48 -68 109 -173 109 -187 0
-5 -31 -56 -68 -114 -116 -177 -259 -312 -437 -414 -44 -25 -83 -45 -87 -45
-4 0 -5 18 -2 39 17 125 -3 305 -44 376 -8 15 -12 14 -30 -12 -49 -69 -191
-99 -276 -58 -90 44 -142 132 -134 233 5 74 33 128 87 170 l43 32 -66 30
c-256 116 -568 65 -776 -127 -112 -104 -182 -222 -220 -371 -11 -43 -12 -44
-32 -26 -28 27 -118 148 -161 221 -45 74 -44 75 48 213 202 303 547 514 893
546 37 4 68 7 70 9 5 4 191 -3 218 -9z"/>
</g>
</svg>
