<?xml version="1.0" standalone="no"?>
<!DOCTYPE svg PUBLIC "-//W3C//DTD SVG 20010904//EN"
 "http://www.w3.org/TR/2001/REC-SVG-20010904/DTD/svg10.dtd">
<svg version="1.0" xmlns="http://www.w3.org/2000/svg"
 width="700.000000pt" height="700.000000pt" viewBox="0 0 700.000000 700.000000"
 preserveAspectRatio="xMidYMid meet">
<metadata>
Created by potrace 1.14, written by Peter Selinger 2001-2017
</metadata>
<g transform="translate(0.000000,700.000000) scale(0.100000,-0.100000)"
fill="#000000" stroke="none">
<path d="M1650 6018 c-228 -20 -411 -167 -492 -391 l-22 -62 -2 -1720 -2
-1719 -485 -482 c-267 -265 -499 -503 -516 -528 -93 -135 -132 -267 -126 -431
3 -107 6 -121 31 -199 70 -214 240 -381 459 -453 69 -22 98 -26 205 -27 90 0
143 5 190 18 86 24 193 78 255 129 28 23 231 222 453 442 222 220 527 523 678
673 l275 272 1342 1 c738 0 1360 2 1382 5 244 28 455 248 484 504 3 30 5 825
5 1765 -1 1895 3 1777 -66 1909 -45 85 -156 194 -238 234 -141 68 -6 64 -1964
66 -974 0 -1805 -2 -1846 -6z m1805 -432 c252 -14 542 -113 775 -264 422 -273
693 -708 760 -1217 9 -73 6 -385 -5 -445 -6 -33 -40 -186 -49 -221 -10 -37
-39 -117 -71 -193 -77 -186 -200 -369 -350 -521 -234 -237 -495 -383 -819
-460 -145 -34 -192 -39 -371 -40 -167 0 -246 6 -330 25 -27 6 -57 13 -65 15
-341 71 -703 299 -936 590 -166 208 -299 500 -339 745 -3 19 -7 46 -10 60 -16
93 -22 301 -11 405 8 72 17 140 22 157 3 10 8 30 10 45 28 158 129 398 237
563 73 112 108 154 237 281 254 252 564 407 927 465 62 10 205 20 253 17 25
-1 86 -4 135 -7z m657 -67 c328 -128 646 -376 842 -654 303 -432 413 -953 310
-1470 -15 -73 -78 -286 -92 -310 -4 -5 -7 -14 -8 -20 -4 -21 -97 -203 -137
-268 -245 -394 -617 -677 -1067 -812 -41 -12 -95 -26 -120 -31 -25 -4 -47 -8
-50 -9 -5 -1 -61 -11 -130 -21 -80 -13 -359 -12 -460 2 -224 30 -399 84 -618
192 l-93 45 -806 -804 c-443 -442 -813 -812 -822 -822 -51 -57 -179 -81 -246
-45 -39 21 -83 64 -103 103 -21 41 -21 141 1 182 9 17 254 269 543 560 289
290 652 655 807 810 l281 283 -70 72 c-170 177 -308 403 -399 652 -20 54 -34
100 -32 102 2 3 10 -10 17 -28 114 -288 347 -583 610 -771 180 -129 449 -254
609 -284 14 -2 28 -6 31 -8 4 -2 35 -9 71 -14 35 -6 75 -14 89 -17 45 -11 394
-13 455 -3 33 5 76 12 95 14 140 21 323 81 475 155 481 236 821 655 954 1175
38 152 49 260 46 465 -2 164 -6 214 -28 317 -89 424 -304 774 -642 1050 -71
57 -210 146 -302 193 -87 44 -90 50 -11 19z"/>
<path d="M3160 4502 c-280 -33 -536 -152 -733 -341 -87 -83 -185 -208 -232
-296 l-30 -56 29 -52 c36 -66 103 -159 154 -216 l39 -44 12 49 c33 130 113
266 212 360 221 208 529 258 809 132 l44 -20 -24 -19 c-48 -37 -63 -55 -87
-109 -72 -160 57 -342 232 -327 69 5 106 21 153 68 40 39 43 36 69 -66 18 -73
24 -242 11 -302 l-7 -32 37 17 c169 78 351 238 467 412 92 137 92 137 62 196
-46 89 -129 198 -222 290 -233 230 -527 354 -855 358 -63 1 -126 0 -140 -2z"/>
</g>
</svg>
